<svg xmlns="http://www.w3.org/2000/svg" viewBox="0 0 320 320" role="img" aria-label="QR t·ng bia">
  <rect width="320" height="320" rx="28" fill="#fff7ed"/>
  <rect x="34" y="34" width="252" height="252" rx="16" fill="#ffffff" stroke="#fed7aa" stroke-width="4"/>
  <g fill="#111827">
    <rect x="56" y="56" width="64" height="64" rx="8"/>
    <rect x="200" y="56" width="64" height="64" rx="8"/>
    <rect x="56" y="200" width="64" height="64" rx="8"/>
    <rect x="72" y="72" width="32" height="32" fill="#fff"/>
    <rect x="216" y="72" width="32" height="32" fill="#fff"/>
    <rect x="72" y="216" width="32" height="32" fill="#fff"/>
    <rect x="144" y="56" width="16" height="16"/>
    <rect x="168" y="56" width="16" height="16"/>
    <rect x="136" y="88" width="48" height="16"/>
    <rect x="144" y="120" width="16" height="40"/>
    <rect x="176" y="128" width="32" height="16"/>
    <rect x="232" y="144" width="32" height="16"/>
    <rect x="128" y="176" width="16" height="48"/>
    <rect x="160" y="176" width="48" height="16"/>
    <rect x="224" y="184" width="16" height="40"/>
    <rect x="248" y="200" width="16" height="16"/>
    <rect x="144" y="248" width="24" height="16"/>
    <rect x="184" y="224" width="16" height="40"/>
    <rect x="216" y="248" width="48" height="16"/>
    <rect x="152" y="144" width="16" height="16"/>
    <rect x="88" y="144" width="32" height="16"/>
    <rect x="56" y="152" width="16" height="16"/>
  </g>
  <text x="160" y="301" text-anchor="middle" font-family="Arial, sans-serif" font-size="16" font-weight="700" fill="#9a3412">Thay bąng QR th­t</text>
</svg>
